<mxfile host="65bd71144e">
    <diagram id="DAefvulOVOqBZXu9EJRh" name="Page-1">
        <mxGraphModel dx="1072" dy="587" grid="1" gridSize="10" guides="1" tooltips="1" connect="1" arrows="1" fold="1" page="1" pageScale="1" pageWidth="1100" pageHeight="850" math="0" shadow="0">
            <root>
                <mxCell id="0"/>
                <mxCell id="1" parent="0"/>
                <mxCell id="2" value="Solution" style="swimlane;whiteSpace=wrap;html=1;startSize=23;fillColor=#f8cecc;strokeColor=#b85450;" parent="1" vertex="1">
                    <mxGeometry x="240" y="80" width="660" height="470" as="geometry"/>
                </mxCell>
                <mxCell id="3" value="Project 1" style="swimlane;whiteSpace=wrap;html=1;fillColor=#d5e8d4;strokeColor=#82b366;" parent="2" vertex="1">
                    <mxGeometry x="10" y="40" width="640" height="240" as="geometry"/>
                </mxCell>
                <mxCell id="5" value="namespaces" style="swimlane;whiteSpace=wrap;html=1;fillColor=#fff2cc;strokeColor=#d6b656;" parent="3" vertex="1">
                    <mxGeometry x="30" y="40" width="570" height="180" as="geometry"/>
                </mxCell>
                <mxCell id="6" value="Class 1" style="rounded=1;whiteSpace=wrap;html=1;fillColor=#e1d5e7;strokeColor=#9673a6;" parent="5" vertex="1">
                    <mxGeometry x="30" y="40" width="120" height="60" as="geometry"/>
                </mxCell>
                <mxCell id="7" value="Class 2" style="rounded=1;whiteSpace=wrap;html=1;fillColor=#e1d5e7;strokeColor=#9673a6;" parent="5" vertex="1">
                    <mxGeometry x="170" y="40" width="120" height="60" as="geometry"/>
                </mxCell>
                <mxCell id="4" value="Project 2" style="swimlane;whiteSpace=wrap;html=1;fillColor=#d5e8d4;strokeColor=#82b366;" parent="2" vertex="1">
                    <mxGeometry x="10" y="300" width="150" height="100" as="geometry"/>
                </mxCell>
            </root>
        </mxGraphModel>
    </diagram>
    <diagram id="mHQyAOac0nqXzUnbHVKf" name="Page-2">
        <mxGraphModel dx="1072" dy="587" grid="1" gridSize="10" guides="1" tooltips="1" connect="1" arrows="1" fold="1" page="1" pageScale="1" pageWidth="1100" pageHeight="850" math="0" shadow="0">
            <root>
                <mxCell id="0"/>
                <mxCell id="1" parent="0"/>
                <mxCell id="zVt15B2Qipg1efJTieVo-18" value="Student" style="swimlane;childLayout=stackLayout;horizontal=1;startSize=30;horizontalStack=0;rounded=1;fontSize=14;fontStyle=0;strokeWidth=2;resizeParent=0;resizeLast=1;shadow=0;dashed=0;align=center;fillColor=#dae8fc;strokeColor=#6c8ebf;" parent="1" vertex="1">
                    <mxGeometry x="120" y="110" width="160" height="120" as="geometry"/>
                </mxCell>
                <mxCell id="zVt15B2Qipg1efJTieVo-19" value="+ Name&#10;+ Roll Number&#10;+ Gender" style="align=left;strokeColor=none;fillColor=none;spacingLeft=4;fontSize=12;verticalAlign=top;resizable=0;rotatable=0;part=1;" parent="zVt15B2Qipg1efJTieVo-18" vertex="1">
                    <mxGeometry y="30" width="160" height="90" as="geometry"/>
                </mxCell>
                <mxCell id="zVt15B2Qipg1efJTieVo-20" value="Teacher" style="swimlane;childLayout=stackLayout;horizontal=1;startSize=30;horizontalStack=0;rounded=1;fontSize=14;fontStyle=0;strokeWidth=2;resizeParent=0;resizeLast=1;shadow=0;dashed=0;align=center;fillColor=#f8cecc;strokeColor=#b85450;" parent="1" vertex="1">
                    <mxGeometry x="800" y="100" width="160" height="120" as="geometry"/>
                </mxCell>
                <mxCell id="zVt15B2Qipg1efJTieVo-21" value="+ Name&#10;+ Staff Id&#10;+ Gender&#10;+ Title" style="align=left;strokeColor=none;fillColor=none;spacingLeft=4;fontSize=12;verticalAlign=top;resizable=0;rotatable=0;part=1;" parent="zVt15B2Qipg1efJTieVo-20" vertex="1">
                    <mxGeometry y="30" width="160" height="90" as="geometry"/>
                </mxCell>
                <mxCell id="zVt15B2Qipg1efJTieVo-22" value="Subject" style="swimlane;childLayout=stackLayout;horizontal=1;startSize=30;horizontalStack=0;rounded=1;fontSize=14;fontStyle=0;strokeWidth=2;resizeParent=0;resizeLast=1;shadow=0;dashed=0;align=center;fillColor=#d5e8d4;strokeColor=#82b366;" parent="1" vertex="1">
                    <mxGeometry x="420" y="100" width="160" height="120" as="geometry"/>
                </mxCell>
                <mxCell id="zVt15B2Qipg1efJTieVo-23" value="+ Name" style="align=left;strokeColor=none;fillColor=none;spacingLeft=4;fontSize=12;verticalAlign=top;resizable=0;rotatable=0;part=1;" parent="zVt15B2Qipg1efJTieVo-22" vertex="1">
                    <mxGeometry y="30" width="160" height="90" as="geometry"/>
                </mxCell>
                <mxCell id="zVt15B2Qipg1efJTieVo-24" value="Theory" style="swimlane;childLayout=stackLayout;horizontal=1;startSize=30;horizontalStack=0;rounded=1;fontSize=14;fontStyle=0;strokeWidth=2;resizeParent=0;resizeLast=1;shadow=0;dashed=0;align=center;fillColor=#d5e8d4;strokeColor=#82b366;" parent="1" vertex="1">
                    <mxGeometry x="320" y="290" width="160" height="120" as="geometry"/>
                </mxCell>
                <mxCell id="zVt15B2Qipg1efJTieVo-25" value="+ Name" style="align=left;strokeColor=none;fillColor=none;spacingLeft=4;fontSize=12;verticalAlign=top;resizable=0;rotatable=0;part=1;" parent="zVt15B2Qipg1efJTieVo-24" vertex="1">
                    <mxGeometry y="30" width="160" height="90" as="geometry"/>
                </mxCell>
                <mxCell id="zVt15B2Qipg1efJTieVo-26" value="Practicle" style="swimlane;childLayout=stackLayout;horizontal=1;startSize=30;horizontalStack=0;rounded=1;fontSize=14;fontStyle=0;strokeWidth=2;resizeParent=0;resizeLast=1;shadow=0;dashed=0;align=center;fillColor=#d5e8d4;strokeColor=#82b366;" parent="1" vertex="1">
                    <mxGeometry x="550" y="290" width="160" height="120" as="geometry"/>
                </mxCell>
                <mxCell id="zVt15B2Qipg1efJTieVo-27" value="+ Name" style="align=left;strokeColor=none;fillColor=none;spacingLeft=4;fontSize=12;verticalAlign=top;resizable=0;rotatable=0;part=1;" parent="zVt15B2Qipg1efJTieVo-26" vertex="1">
                    <mxGeometry y="30" width="160" height="90" as="geometry"/>
                </mxCell>
                <mxCell id="zVt15B2Qipg1efJTieVo-28" style="edgeStyle=none;html=1;exitX=0.5;exitY=1;exitDx=0;exitDy=0;entryX=0.5;entryY=0;entryDx=0;entryDy=0;" parent="1" source="zVt15B2Qipg1efJTieVo-23" target="zVt15B2Qipg1efJTieVo-24" edge="1">
                    <mxGeometry relative="1" as="geometry"/>
                </mxCell>
                <mxCell id="zVt15B2Qipg1efJTieVo-29" style="edgeStyle=none;html=1;entryX=0.5;entryY=0;entryDx=0;entryDy=0;" parent="1" source="zVt15B2Qipg1efJTieVo-23" target="zVt15B2Qipg1efJTieVo-26" edge="1">
                    <mxGeometry relative="1" as="geometry"/>
                </mxCell>
            </root>
        </mxGraphModel>
    </diagram>
    <diagram id="ZQz99YPxdkpD0e549S-z" name="Page-3">
        <mxGraphModel dx="1072" dy="587" grid="1" gridSize="10" guides="1" tooltips="1" connect="1" arrows="1" fold="1" page="1" pageScale="1" pageWidth="1100" pageHeight="850" math="0" shadow="0">
            <root>
                <mxCell id="0"/>
                <mxCell id="1" parent="0"/>
                <mxCell id="G77hIpyBT5GOV5up6HPN-1" value="Vehicle" style="swimlane;childLayout=stackLayout;horizontal=1;startSize=30;horizontalStack=0;rounded=1;fontSize=14;fontStyle=0;strokeWidth=2;resizeParent=0;resizeLast=1;shadow=0;dashed=0;align=center;" parent="1" vertex="1">
                    <mxGeometry x="420" y="80" width="160" height="90" as="geometry"/>
                </mxCell>
                <mxCell id="G77hIpyBT5GOV5up6HPN-2" value="+ Run()" style="align=left;strokeColor=none;fillColor=none;spacingLeft=4;fontSize=12;verticalAlign=top;resizable=0;rotatable=0;part=1;" parent="G77hIpyBT5GOV5up6HPN-1" vertex="1">
                    <mxGeometry y="30" width="160" height="60" as="geometry"/>
                </mxCell>
                <mxCell id="G77hIpyBT5GOV5up6HPN-3" value="LandBased" style="swimlane;childLayout=stackLayout;horizontal=1;startSize=30;horizontalStack=0;rounded=1;fontSize=14;fontStyle=0;strokeWidth=2;resizeParent=0;resizeLast=1;shadow=0;dashed=0;align=center;" parent="1" vertex="1">
                    <mxGeometry x="170" y="210" width="160" height="120" as="geometry"/>
                </mxCell>
                <mxCell id="G77hIpyBT5GOV5up6HPN-4" value="+ Run()&#10;+ RunOnLand&#10;+ Speed&#10;+ Wheels" style="align=left;strokeColor=none;fillColor=none;spacingLeft=4;fontSize=12;verticalAlign=top;resizable=0;rotatable=0;part=1;" parent="G77hIpyBT5GOV5up6HPN-3" vertex="1">
                    <mxGeometry y="30" width="160" height="60" as="geometry"/>
                </mxCell>
                <mxCell id="G77hIpyBT5GOV5up6HPN-5" value="+ Run()" style="align=left;strokeColor=none;fillColor=none;spacingLeft=4;fontSize=12;verticalAlign=top;resizable=0;rotatable=0;part=1;" parent="G77hIpyBT5GOV5up6HPN-3" vertex="1">
                    <mxGeometry y="90" width="160" height="30" as="geometry"/>
                </mxCell>
                <mxCell id="G77hIpyBT5GOV5up6HPN-6" value="Water" style="swimlane;childLayout=stackLayout;horizontal=1;startSize=30;horizontalStack=0;rounded=1;fontSize=14;fontStyle=0;strokeWidth=2;resizeParent=0;resizeLast=1;shadow=0;dashed=0;align=center;" parent="1" vertex="1">
                    <mxGeometry x="430" y="210" width="160" height="90" as="geometry"/>
                </mxCell>
                <mxCell id="G77hIpyBT5GOV5up6HPN-7" value="+ Run()" style="align=left;strokeColor=none;fillColor=none;spacingLeft=4;fontSize=12;verticalAlign=top;resizable=0;rotatable=0;part=1;" parent="G77hIpyBT5GOV5up6HPN-6" vertex="1">
                    <mxGeometry y="30" width="160" height="60" as="geometry"/>
                </mxCell>
                <mxCell id="G77hIpyBT5GOV5up6HPN-8" value="+ Run()" style="align=left;strokeColor=none;fillColor=none;spacingLeft=4;fontSize=12;verticalAlign=top;resizable=0;rotatable=0;part=1;" parent="G77hIpyBT5GOV5up6HPN-6" vertex="1">
                    <mxGeometry y="90" width="160" as="geometry"/>
                </mxCell>
                <mxCell id="G77hIpyBT5GOV5up6HPN-9" value="Air" style="swimlane;childLayout=stackLayout;horizontal=1;startSize=30;horizontalStack=0;rounded=1;fontSize=14;fontStyle=0;strokeWidth=2;resizeParent=0;resizeLast=1;shadow=0;dashed=0;align=center;" parent="1" vertex="1">
                    <mxGeometry x="690" y="210" width="160" height="90" as="geometry"/>
                </mxCell>
                <mxCell id="G77hIpyBT5GOV5up6HPN-10" value="+ Run()" style="align=left;strokeColor=none;fillColor=none;spacingLeft=4;fontSize=12;verticalAlign=top;resizable=0;rotatable=0;part=1;" parent="G77hIpyBT5GOV5up6HPN-9" vertex="1">
                    <mxGeometry y="30" width="160" height="60" as="geometry"/>
                </mxCell>
                <mxCell id="G77hIpyBT5GOV5up6HPN-11" value="+ Run()" style="align=left;strokeColor=none;fillColor=none;spacingLeft=4;fontSize=12;verticalAlign=top;resizable=0;rotatable=0;part=1;" parent="G77hIpyBT5GOV5up6HPN-9" vertex="1">
                    <mxGeometry y="90" width="160" as="geometry"/>
                </mxCell>
                <mxCell id="G77hIpyBT5GOV5up6HPN-12" value="2 Wheeler" style="swimlane;childLayout=stackLayout;horizontal=1;startSize=30;horizontalStack=0;rounded=1;fontSize=14;fontStyle=0;strokeWidth=2;resizeParent=0;resizeLast=1;shadow=0;dashed=0;align=center;" parent="1" vertex="1">
                    <mxGeometry x="50" y="370" width="160" height="90" as="geometry"/>
                </mxCell>
                <mxCell id="G77hIpyBT5GOV5up6HPN-14" value="+ Run()" style="align=left;strokeColor=none;fillColor=none;spacingLeft=4;fontSize=12;verticalAlign=top;resizable=0;rotatable=0;part=1;" parent="G77hIpyBT5GOV5up6HPN-12" vertex="1">
                    <mxGeometry y="30" width="160" height="60" as="geometry"/>
                </mxCell>
                <mxCell id="G77hIpyBT5GOV5up6HPN-15" style="edgeStyle=none;html=1;exitX=0.5;exitY=1;exitDx=0;exitDy=0;entryX=0.5;entryY=0;entryDx=0;entryDy=0;" parent="1" source="G77hIpyBT5GOV5up6HPN-5" target="G77hIpyBT5GOV5up6HPN-12" edge="1">
                    <mxGeometry relative="1" as="geometry"/>
                </mxCell>
                <mxCell id="G77hIpyBT5GOV5up6HPN-16" style="edgeStyle=none;html=1;exitX=0.5;exitY=1;exitDx=0;exitDy=0;" parent="1" source="G77hIpyBT5GOV5up6HPN-2" target="G77hIpyBT5GOV5up6HPN-3" edge="1">
                    <mxGeometry relative="1" as="geometry"/>
                </mxCell>
                <mxCell id="G77hIpyBT5GOV5up6HPN-17" style="edgeStyle=none;html=1;entryX=0.45;entryY=0.013;entryDx=0;entryDy=0;entryPerimeter=0;" parent="1" source="G77hIpyBT5GOV5up6HPN-2" target="G77hIpyBT5GOV5up6HPN-6" edge="1">
                    <mxGeometry relative="1" as="geometry"/>
                </mxCell>
                <mxCell id="G77hIpyBT5GOV5up6HPN-18" style="edgeStyle=none;html=1;entryX=0.5;entryY=0;entryDx=0;entryDy=0;" parent="1" source="G77hIpyBT5GOV5up6HPN-2" target="G77hIpyBT5GOV5up6HPN-9" edge="1">
                    <mxGeometry relative="1" as="geometry"/>
                </mxCell>
                <mxCell id="G77hIpyBT5GOV5up6HPN-19" value="4 Wheeker" style="swimlane;childLayout=stackLayout;horizontal=1;startSize=30;horizontalStack=0;rounded=1;fontSize=14;fontStyle=0;strokeWidth=2;resizeParent=0;resizeLast=1;shadow=0;dashed=0;align=center;" parent="1" vertex="1">
                    <mxGeometry x="300" y="370" width="160" height="90" as="geometry"/>
                </mxCell>
                <mxCell id="G77hIpyBT5GOV5up6HPN-21" value="+ Run()" style="align=left;strokeColor=none;fillColor=none;spacingLeft=4;fontSize=12;verticalAlign=top;resizable=0;rotatable=0;part=1;" parent="G77hIpyBT5GOV5up6HPN-19" vertex="1">
                    <mxGeometry y="30" width="160" height="60" as="geometry"/>
                </mxCell>
            </root>
        </mxGraphModel>
    </diagram>
    <diagram id="9pShMPI2iQ1cVXNyixfj" name="Page-4">
        <mxGraphModel dx="1072" dy="587" grid="1" gridSize="10" guides="1" tooltips="1" connect="1" arrows="1" fold="1" page="1" pageScale="1" pageWidth="1100" pageHeight="850" math="0" shadow="0">
            <root>
                <mxCell id="0"/>
                <mxCell id="1" parent="0"/>
                <mxCell id="dwcMrslQxaSZDn5XXs17-1" value="Stack" style="swimlane;fontStyle=0;childLayout=stackLayout;horizontal=1;startSize=20;fillColor=#ffffff;horizontalStack=0;resizeParent=1;resizeParentMax=0;resizeLast=0;collapsible=0;marginBottom=0;swimlaneFillColor=#ffffff;" parent="1" vertex="1">
                    <mxGeometry x="70" y="40" width="250" height="260" as="geometry"/>
                </mxCell>
                <mxCell id="dwcMrslQxaSZDn5XXs17-3" value="num=1" style="rounded=0;whiteSpace=wrap;html=1;" parent="dwcMrslQxaSZDn5XXs17-1" vertex="1">
                    <mxGeometry y="20" width="250" height="60" as="geometry"/>
                </mxCell>
                <mxCell id="dwcMrslQxaSZDn5XXs17-6" value="&lt;div style=&quot;color: rgb(36, 41, 46); background-color: rgb(255, 255, 255); font-family: Consolas, &amp;quot;Courier New&amp;quot;, monospace; font-size: 18px; line-height: 24px;&quot;&gt;&lt;span style=&quot;color: #6f42c1;&quot;&gt;cost&lt;/span&gt;&lt;span style=&quot;color: #d73a49;&quot;&gt;=&lt;/span&gt;&lt;span style=&quot;color: #005cc5;&quot;&gt;1.258978&lt;/span&gt;&lt;/div&gt;" style="rounded=0;whiteSpace=wrap;html=1;" parent="dwcMrslQxaSZDn5XXs17-1" vertex="1">
                    <mxGeometry y="80" width="250" height="60" as="geometry"/>
                </mxCell>
                <mxCell id="dwcMrslQxaSZDn5XXs17-7" value="&lt;div style=&quot;background-color: rgb(255, 255, 255); font-family: Consolas, &amp;quot;Courier New&amp;quot;, monospace; font-size: 18px; line-height: 24px;&quot;&gt;&lt;font color=&quot;#6f42c1&quot;&gt;bike=&amp;amp;10001&lt;/font&gt;&lt;/div&gt;" style="rounded=0;whiteSpace=wrap;html=1;" parent="dwcMrslQxaSZDn5XXs17-1" vertex="1">
                    <mxGeometry y="140" width="250" height="60" as="geometry"/>
                </mxCell>
                <mxCell id="dwcMrslQxaSZDn5XXs17-10" value="&lt;div style=&quot;background-color: rgb(255, 255, 255); font-family: Consolas, &amp;quot;Courier New&amp;quot;, monospace; font-size: 18px; line-height: 24px;&quot;&gt;&lt;span style=&quot;color: rgb(111, 66, 193);&quot;&gt;arrInteger&lt;/span&gt;&lt;font color=&quot;#6f42c1&quot;&gt;=&amp;amp;1002&lt;/font&gt;&lt;/div&gt;" style="rounded=0;whiteSpace=wrap;html=1;" parent="dwcMrslQxaSZDn5XXs17-1" vertex="1">
                    <mxGeometry y="200" width="250" height="60" as="geometry"/>
                </mxCell>
                <mxCell id="dwcMrslQxaSZDn5XXs17-2" value="Heap" style="ellipse;shape=cloud;whiteSpace=wrap;html=1;" parent="1" vertex="1">
                    <mxGeometry x="320" y="20" width="790" height="540" as="geometry"/>
                </mxCell>
                <mxCell id="dwcMrslQxaSZDn5XXs17-8" value="Bike1&lt;br&gt;Speed=120&lt;br&gt;WheelCount=2" style="rounded=0;whiteSpace=wrap;html=1;" parent="1" vertex="1">
                    <mxGeometry x="520" y="160" width="160" height="100" as="geometry"/>
                </mxCell>
                <mxCell id="dwcMrslQxaSZDn5XXs17-9" style="edgeStyle=none;html=1;entryX=0;entryY=0.5;entryDx=0;entryDy=0;" parent="1" source="dwcMrslQxaSZDn5XXs17-7" target="dwcMrslQxaSZDn5XXs17-8" edge="1">
                    <mxGeometry relative="1" as="geometry"/>
                </mxCell>
                <mxCell id="dwcMrslQxaSZDn5XXs17-12" value="" style="shape=table;html=1;whiteSpace=wrap;startSize=0;container=1;collapsible=0;childLayout=tableLayout;" parent="1" vertex="1">
                    <mxGeometry x="500" y="360" width="440" height="50" as="geometry"/>
                </mxCell>
                <mxCell id="dwcMrslQxaSZDn5XXs17-13" value="" style="shape=tableRow;horizontal=0;startSize=0;swimlaneHead=0;swimlaneBody=0;top=0;left=0;bottom=0;right=0;collapsible=0;dropTarget=0;fillColor=none;points=[[0,0.5],[1,0.5]];portConstraint=eastwest;" parent="dwcMrslQxaSZDn5XXs17-12" vertex="1">
                    <mxGeometry width="440" height="50" as="geometry"/>
                </mxCell>
                <mxCell id="dwcMrslQxaSZDn5XXs17-14" value="10" style="shape=partialRectangle;html=1;whiteSpace=wrap;connectable=0;fillColor=none;top=0;left=0;bottom=0;right=0;overflow=hidden;" parent="dwcMrslQxaSZDn5XXs17-13" vertex="1">
                    <mxGeometry width="147" height="50" as="geometry">
                        <mxRectangle width="147" height="50" as="alternateBounds"/>
                    </mxGeometry>
                </mxCell>
                <mxCell id="dwcMrslQxaSZDn5XXs17-15" value="20" style="shape=partialRectangle;html=1;whiteSpace=wrap;connectable=0;fillColor=none;top=0;left=0;bottom=0;right=0;overflow=hidden;" parent="dwcMrslQxaSZDn5XXs17-13" vertex="1">
                    <mxGeometry x="147" width="146" height="50" as="geometry">
                        <mxRectangle width="146" height="50" as="alternateBounds"/>
                    </mxGeometry>
                </mxCell>
                <mxCell id="dwcMrslQxaSZDn5XXs17-16" value="30" style="shape=partialRectangle;html=1;whiteSpace=wrap;connectable=0;fillColor=none;top=0;left=0;bottom=0;right=0;overflow=hidden;" parent="dwcMrslQxaSZDn5XXs17-13" vertex="1">
                    <mxGeometry x="293" width="147" height="50" as="geometry">
                        <mxRectangle width="147" height="50" as="alternateBounds"/>
                    </mxGeometry>
                </mxCell>
                <mxCell id="dwcMrslQxaSZDn5XXs17-37" value="1002" style="text;html=1;strokeColor=none;fillColor=none;align=center;verticalAlign=middle;whiteSpace=wrap;rounded=0;" parent="1" vertex="1">
                    <mxGeometry x="540" y="410" width="60" height="30" as="geometry"/>
                </mxCell>
                <mxCell id="dwcMrslQxaSZDn5XXs17-38" value="1003" style="text;html=1;strokeColor=none;fillColor=none;align=center;verticalAlign=middle;whiteSpace=wrap;rounded=0;" parent="1" vertex="1">
                    <mxGeometry x="690" y="410" width="60" height="30" as="geometry"/>
                </mxCell>
                <mxCell id="dwcMrslQxaSZDn5XXs17-39" value="1004" style="text;html=1;strokeColor=none;fillColor=none;align=center;verticalAlign=middle;whiteSpace=wrap;rounded=0;" parent="1" vertex="1">
                    <mxGeometry x="840" y="410" width="60" height="30" as="geometry"/>
                </mxCell>
                <mxCell id="dwcMrslQxaSZDn5XXs17-40" style="edgeStyle=none;html=1;entryX=0;entryY=0.5;entryDx=0;entryDy=0;" parent="1" source="dwcMrslQxaSZDn5XXs17-10" target="dwcMrslQxaSZDn5XXs17-13" edge="1">
                    <mxGeometry relative="1" as="geometry"/>
                </mxCell>
            </root>
        </mxGraphModel>
    </diagram>
</mxfile>